<?xml version="1.0" encoding="UTF-8" ?>
<!DOCTYPE svg PUBLIC "-//W3C//DTD SVG 1.1//EN" "http://www.w3.org/Graphics/SVG/1.1/DTD/svg11.dtd">
<svg width="626pt" height="626pt" viewBox="0 0 626 626" version="1.1" xmlns="http://www.w3.org/2000/svg">
<path fill="#693a32" stroke="#693a32" stroke-width="0.09375" opacity="1.00" d=" M 125.66 160.49 C 127.33 157.09 131.17 154.74 135.00 155.56 C 142.18 157.19 148.75 160.70 155.36 163.81 C 190.67 181.92 224.20 203.26 257.83 224.26 C 275.66 218.88 294.42 217.59 312.95 217.49 C 330.88 217.54 349.04 218.57 366.40 223.40 C 367.76 223.67 369.31 224.61 370.62 223.61 C 402.53 203.51 434.51 183.39 467.93 165.86 C 475.77 162.00 483.55 157.68 492.11 155.61 C 496.23 154.53 500.32 157.40 501.96 161.08 C 504.65 167.00 504.70 173.68 504.63 180.06 C 504.06 196.00 500.98 211.74 497.22 227.20 C 491.55 249.80 483.98 271.96 474.17 293.10 C 467.11 308.06 458.96 322.63 448.68 335.64 C 447.29 337.57 444.84 339.24 445.34 341.94 C 445.51 364.92 436.96 387.05 424.98 406.34 C 433.82 398.41 446.31 396.14 457.83 397.24 C 470.65 398.43 484.09 402.18 493.33 411.66 C 499.56 417.91 502.76 426.59 503.41 435.29 C 529.29 435.20 555.17 435.27 581.04 435.26 C 584.00 434.78 586.43 438.27 584.85 440.83 C 584.10 442.75 581.81 442.80 580.09 442.80 C 554.41 442.75 528.73 442.80 503.06 442.78 C 501.74 451.81 498.61 461.26 491.56 467.44 C 487.73 470.89 482.11 470.12 477.59 468.69 C 474.60 467.77 472.18 465.74 470.07 463.52 C 467.05 467.58 462.10 470.04 457.02 469.76 C 449.00 469.37 440.34 466.01 436.31 458.64 C 431.40 461.56 424.97 460.80 420.47 457.47 C 416.18 453.82 414.61 448.12 413.56 442.81 C 346.94 442.75 280.32 442.80 213.70 442.78 C 212.62 448.18 211.24 454.04 206.97 457.88 C 202.48 461.50 195.85 462.23 190.78 459.36 C 186.89 466.49 178.60 469.79 170.87 470.44 C 165.55 470.89 160.21 468.53 157.02 464.24 C 153.14 468.88 146.94 470.91 141.03 470.55 C 137.10 470.13 134.08 467.18 131.83 464.17 C 127.28 457.94 124.88 450.39 123.96 442.79 C 97.62 442.77 71.28 442.80 44.95 442.78 C 41.71 443.33 39.23 438.93 41.62 436.58 C 42.67 435.22 44.44 435.18 46.00 435.23 C 71.93 435.30 97.86 435.20 123.78 435.28 C 124.48 426.45 128.04 417.74 134.54 411.60 C 144.50 402.02 158.69 398.51 172.12 397.76 C 183.37 397.05 195.16 400.21 203.45 408.13 C 191.23 388.96 182.32 366.97 181.99 343.98 C 181.79 342.26 182.40 340.22 181.16 338.79 C 169.16 324.35 159.95 307.83 152.10 290.84 C 142.19 269.03 134.58 246.20 129.05 222.91 C 125.83 208.81 123.14 194.49 122.68 180.01 C 122.60 173.43 122.66 166.50 125.66 160.49 M 132.96 162.76 C 129.82 168.41 130.11 175.13 130.40 181.37 C 130.79 176.43 132.36 170.38 137.67 168.67 C 143.99 166.75 150.30 170.18 155.59 173.33 C 167.35 180.94 177.59 190.63 187.52 200.44 C 200.85 213.56 213.21 227.61 225.59 241.62 C 232.34 235.65 240.22 231.11 248.49 227.59 C 244.01 224.26 239.12 221.56 234.45 218.52 C 207.98 202.15 181.48 185.74 153.83 171.42 C 147.09 168.08 140.31 164.57 132.96 162.76 M 485.02 165.97 C 473.65 170.90 462.85 177.01 452.02 183.01 C 427.20 197.15 402.87 212.14 378.76 227.44 C 387.05 231.09 394.86 235.78 401.84 241.58 C 417.68 223.24 434.06 205.32 451.87 188.88 C 459.41 182.21 467.17 175.60 476.11 170.87 C 480.91 168.48 487.23 166.46 492.02 169.94 C 495.43 172.22 496.16 176.48 496.71 180.25 C 497.34 174.47 497.07 168.50 494.79 163.08 C 491.32 163.13 488.16 164.69 485.02 165.97 M 137.98 183.01 C 139.12 208.21 146.00 232.80 154.71 256.36 C 162.74 277.75 172.68 298.45 184.69 317.90 C 186.02 313.27 187.27 308.61 189.01 304.11 C 196.34 283.58 205.10 262.95 219.99 246.68 C 201.15 225.35 182.25 203.81 160.10 185.80 C 154.54 181.70 148.88 177.04 141.95 175.64 C 137.94 175.05 138.08 180.32 137.98 183.01 M 479.62 177.59 C 469.91 182.79 461.68 190.25 453.56 197.60 C 437.17 213.08 421.96 229.77 407.30 246.88 C 419.06 259.38 426.93 274.91 433.23 290.72 C 436.73 299.60 440.20 308.54 442.54 317.81 C 456.06 296.32 466.72 273.09 475.22 249.19 C 482.25 228.75 487.78 207.60 489.21 185.96 C 489.33 182.69 489.62 179.10 487.88 176.17 C 485.17 174.72 482.14 176.52 479.62 177.59 M 272.28 228.40 C 256.88 231.28 241.69 237.30 229.94 247.89 C 218.09 258.42 210.15 272.52 203.87 286.88 C 196.27 304.69 188.90 323.35 189.47 343.06 C 189.63 369.25 201.83 393.52 216.69 414.42 C 220.22 419.06 223.15 424.20 227.20 428.43 C 228.20 430.86 229.76 433.00 231.09 435.26 C 252.03 435.26 272.96 435.23 293.90 435.27 C 280.21 426.64 277.22 407.56 283.31 393.41 C 275.29 389.00 269.63 380.74 269.02 371.54 C 265.86 368.29 264.44 363.83 264.29 359.38 C 265.87 362.95 267.56 366.79 271.05 368.91 C 275.28 371.44 280.62 370.67 285.02 369.01 C 290.76 366.86 294.01 361.17 299.29 358.30 C 302.62 356.27 306.48 355.46 310.29 354.95 C 310.74 350.68 311.32 346.43 311.80 342.17 C 301.31 341.09 292.68 333.60 287.24 324.97 C 284.38 320.21 281.93 314.75 282.44 309.08 C 283.10 303.31 288.29 299.47 293.40 297.65 C 303.03 294.25 313.52 294.15 323.58 295.22 C 330.60 296.22 338.48 298.04 342.95 304.05 C 346.35 308.96 344.83 315.39 342.51 320.42 C 337.47 331.26 327.61 340.78 315.34 342.26 C 315.78 346.46 316.33 350.66 316.81 354.86 C 320.84 355.50 324.97 356.32 328.45 358.57 C 333.42 361.46 336.63 366.78 342.08 368.94 C 346.63 370.71 352.24 371.54 356.56 368.70 C 359.82 366.64 361.40 362.94 362.95 359.57 C 363.03 364.23 360.99 368.45 358.10 371.97 C 357.20 380.90 351.85 389.02 343.95 393.28 C 350.06 407.45 347.17 426.65 333.40 435.28 C 354.35 435.22 375.30 435.27 396.25 435.25 C 397.58 432.89 399.20 430.68 400.24 428.17 C 400.89 427.59 401.51 426.97 402.08 426.32 C 412.11 412.57 422.11 398.57 428.85 382.85 C 437.03 364.55 440.07 343.76 436.13 324.03 C 434.51 315.31 431.39 306.99 428.27 298.73 C 422.58 284.00 416.02 269.32 406.02 256.95 C 396.57 245.12 383.40 236.50 369.00 231.98 C 353.20 226.88 336.50 225.47 319.98 225.08 C 304.03 224.85 287.98 225.38 272.28 228.40 M 149.57 264.76 C 155.59 281.44 163.01 297.67 172.11 312.91 C 174.38 316.43 176.36 320.18 179.15 323.34 C 167.54 304.74 158.15 284.90 149.57 264.76 M 291.09 394.99 C 286.94 402.94 286.79 412.99 290.77 421.05 C 293.68 426.88 299.64 430.65 305.95 431.82 C 313.62 433.26 322.07 432.91 329.00 429.01 C 340.60 422.09 342.06 405.26 335.78 394.26 C 331.76 388.36 323.65 387.97 317.24 389.04 C 315.75 400.13 315.18 411.33 313.51 422.40 C 312.59 411.34 311.20 400.32 310.29 389.26 C 303.59 387.65 294.94 388.50 291.09 394.99 M 166.53 405.81 C 155.86 407.30 144.52 410.82 137.48 419.49 C 130.25 428.39 129.92 441.13 133.68 451.57 C 135.31 455.78 137.35 460.25 141.20 462.86 C 145.04 463.44 149.63 462.09 151.68 458.55 C 153.01 456.34 153.32 453.70 154.54 451.45 C 156.06 449.32 159.87 449.68 160.75 452.20 C 161.62 455.37 161.89 459.13 164.68 461.33 C 167.45 463.55 171.30 463.04 174.50 462.21 C 178.19 461.17 182.19 459.51 183.99 455.87 C 185.18 453.74 184.60 451.24 184.80 448.94 C 185.35 446.25 188.84 445.26 190.87 446.96 C 192.53 449.17 193.14 452.44 196.06 453.46 C 198.76 453.96 202.10 453.10 203.38 450.46 C 206.28 445.19 206.71 438.93 206.30 433.04 C 205.62 424.14 201.47 415.12 193.78 410.20 C 185.79 404.97 175.73 404.60 166.53 405.81 M 444.23 405.25 C 437.88 406.40 431.79 409.54 427.64 414.56 C 420.28 423.82 418.75 437.20 422.90 448.15 C 423.93 451.71 428.12 453.93 431.60 452.50 C 434.11 451.27 434.64 448.26 436.26 446.23 C 438.25 444.60 441.67 445.42 442.34 448.03 C 442.50 450.54 441.86 453.31 443.31 455.56 C 445.98 459.89 451.30 461.49 456.06 462.17 C 459.50 462.69 463.42 461.10 464.67 457.66 C 465.59 455.67 465.74 453.44 466.36 451.36 C 467.59 448.53 472.34 448.76 473.11 451.82 C 474.29 455.29 475.27 459.56 479.05 461.12 C 481.74 462.20 485.61 463.50 487.73 460.75 C 494.65 452.69 496.96 441.20 495.19 430.87 C 493.46 421.05 485.94 413.11 476.87 409.44 C 466.63 405.29 455.19 403.45 444.23 405.25 M 210.59 418.97 C 212.64 424.17 213.79 429.68 214.04 435.26 C 216.79 435.25 219.54 435.25 222.29 435.23 C 218.35 429.83 214.53 424.36 210.59 418.97 M 405.02 435.29 C 407.70 435.24 410.39 435.23 413.07 435.24 C 413.23 430.08 414.16 424.97 415.79 420.07 C 412.34 425.25 408.54 430.16 405.02 435.29 Z" />
<path fill="#bc996f" stroke="#bc996f" stroke-width="0.09375" opacity="1.00" d=" M 132.96 162.76 C 140.31 164.57 147.09 168.08 153.83 171.42 C 181.48 185.74 207.98 202.15 234.45 218.52 C 239.12 221.56 244.01 224.26 248.49 227.59 C 240.22 231.11 232.34 235.65 225.59 241.62 C 213.21 227.61 200.85 213.56 187.52 200.44 C 177.59 190.63 167.35 180.94 155.59 173.33 C 150.30 170.18 143.99 166.75 137.67 168.67 C 132.36 170.38 130.79 176.43 130.40 181.37 C 130.11 175.13 129.82 168.41 132.96 162.76 Z" />
<path fill="#bc996f" stroke="#bc996f" stroke-width="0.09375" opacity="1.00" d=" M 485.02 165.97 C 488.16 164.69 491.32 163.13 494.79 163.08 C 497.07 168.50 497.34 174.47 496.71 180.25 C 496.16 176.48 495.43 172.22 492.02 169.94 C 487.23 166.46 480.91 168.48 476.11 170.87 C 467.17 175.60 459.41 182.21 451.87 188.88 C 434.06 205.32 417.68 223.24 401.84 241.58 C 394.86 235.78 387.05 231.09 378.76 227.44 C 402.87 212.14 427.20 197.15 452.02 183.01 C 462.85 177.01 473.65 170.90 485.02 165.97 Z" />
<path fill="#dca592" stroke="#dca592" stroke-width="0.09375" opacity="1.00" d=" M 137.98 183.01 C 138.08 180.32 137.94 175.05 141.95 175.64 C 148.88 177.04 154.54 181.70 160.10 185.80 C 182.25 203.81 201.15 225.35 219.99 246.68 C 205.10 262.95 196.34 283.58 189.01 304.11 C 187.27 308.61 186.02 313.27 184.69 317.90 C 172.68 298.45 162.74 277.75 154.71 256.36 C 146.00 232.80 139.12 208.21 137.98 183.01 Z" />
<path fill="#dca592" stroke="#dca592" stroke-width="0.09375" opacity="1.00" d=" M 479.62 177.59 C 482.14 176.52 485.17 174.72 487.88 176.17 C 489.62 179.10 489.33 182.69 489.21 185.96 C 487.78 207.60 482.25 228.75 475.22 249.19 C 466.72 273.09 456.06 296.32 442.54 317.81 C 440.20 308.54 436.73 299.60 433.23 290.72 C 426.93 274.91 419.06 259.38 407.30 246.88 C 421.96 229.77 437.17 213.08 453.56 197.60 C 461.68 190.25 469.91 182.79 479.62 177.59 Z" />
<path fill="#bc996f" stroke="#bc996f" stroke-width="0.09375" opacity="1.00" d=" M 272.28 228.40 C 287.98 225.38 304.03 224.85 319.98 225.08 C 336.50 225.47 353.20 226.88 369.00 231.98 C 383.40 236.50 396.57 245.12 406.02 256.95 C 416.02 269.32 422.58 284.00 428.27 298.73 C 431.39 306.99 434.51 315.31 436.13 324.03 C 440.07 343.76 437.03 364.55 428.85 382.85 C 422.11 398.57 412.11 412.57 402.08 426.32 C 401.51 426.97 400.89 427.59 400.24 428.17 C 405.14 412.59 415.75 399.13 418.43 382.79 C 419.83 374.95 417.81 366.49 412.45 360.51 C 404.71 351.70 393.46 347.29 382.71 343.38 C 375.10 337.56 367.93 330.81 363.85 321.96 C 370.83 323.89 378.83 323.27 384.69 318.70 C 391.78 313.62 395.44 304.18 393.39 295.66 C 391.35 285.06 380.66 277.04 369.90 278.01 C 359.69 278.46 350.99 286.65 348.96 296.52 C 342.29 289.91 333.58 285.55 324.31 284.04 C 323.75 281.06 323.29 278.05 323.38 275.02 C 323.54 264.33 323.82 253.42 321.06 243.00 C 320.08 239.77 318.55 235.90 314.94 234.95 C 311.32 233.93 308.38 237.22 307.22 240.28 C 301.87 254.29 305.27 269.56 303.07 284.04 C 293.80 285.52 285.06 289.82 278.36 296.41 C 276.71 290.32 273.25 284.47 267.70 281.20 C 261.31 277.33 252.94 276.84 246.21 280.13 C 238.39 283.80 233.16 292.27 233.36 300.90 C 233.43 309.53 238.93 317.71 246.83 321.12 C 251.98 323.53 257.91 323.38 263.32 322.00 C 259.39 330.93 251.94 337.43 244.55 343.46 C 233.48 347.32 221.90 352.00 214.23 361.29 C 208.77 367.67 207.41 376.68 209.21 384.72 C 212.49 400.31 222.37 413.39 227.20 428.43 C 223.15 424.20 220.22 419.06 216.69 414.42 C 201.83 393.52 189.63 369.25 189.47 343.06 C 188.90 323.35 196.27 304.69 203.87 286.88 C 210.15 272.52 218.09 258.42 229.94 247.89 C 241.69 237.30 256.88 231.28 272.28 228.40 Z" />
<path fill="#fefefe" stroke="#fefefe" stroke-width="0.09375" opacity="1.00" d=" M 307.22 240.28 C 308.38 237.22 311.32 233.93 314.94 234.95 C 318.55 235.90 320.08 239.77 321.06 243.00 C 323.82 253.42 323.54 264.33 323.38 275.02 C 323.29 278.05 323.75 281.06 324.31 284.04 C 317.29 282.96 310.09 282.91 303.07 284.04 C 305.27 269.56 301.87 254.29 307.22 240.28 Z" />
<path fill="#bc996f" stroke="#bc996f" stroke-width="0.09375" opacity="1.00" d=" M 149.57 264.76 C 158.15 284.90 167.54 304.74 179.15 323.34 C 176.36 320.18 174.38 316.43 172.11 312.91 C 163.01 297.67 155.59 281.44 149.57 264.76 Z" />
<path fill="#693a32" stroke="#693a32" stroke-width="0.09375" opacity="1.00" d=" M 246.21 280.13 C 252.94 276.84 261.31 277.33 267.70 281.20 C 273.25 284.47 276.71 290.32 278.36 296.41 C 285.06 289.82 293.80 285.52 303.07 284.04 C 310.09 282.91 317.29 282.96 324.31 284.04 C 333.58 285.55 342.29 289.91 348.96 296.52 C 350.99 286.65 359.69 278.46 369.90 278.01 C 380.66 277.04 391.35 285.06 393.39 295.66 C 395.44 304.18 391.78 313.62 384.69 318.70 C 378.83 323.27 370.83 323.89 363.85 321.96 C 367.93 330.81 375.10 337.56 382.71 343.38 C 376.82 341.03 371.44 337.45 366.93 333.00 C 359.47 325.98 356.54 315.76 350.21 307.89 C 344.01 299.31 334.51 293.18 324.00 291.58 C 311.06 289.57 296.65 290.75 285.89 298.90 C 277.76 305.00 272.64 314.03 267.91 322.82 C 262.95 332.25 254.25 339.31 244.55 343.46 C 251.94 337.43 259.39 330.93 263.32 322.00 C 257.91 323.38 251.98 323.53 246.83 321.12 C 238.93 317.71 233.43 309.53 233.36 300.90 C 233.16 292.27 238.39 283.80 246.21 280.13 M 259.38 285.35 C 255.77 287.30 255.45 292.93 258.82 295.27 C 262.27 298.22 268.32 295.54 268.40 290.98 C 269.08 286.33 263.28 282.71 259.38 285.35 M 375.18 285.18 C 371.15 286.94 370.77 293.12 374.48 295.45 C 378.01 298.12 383.65 295.45 383.85 291.06 C 384.53 286.58 379.09 282.88 375.18 285.18 Z" />
<path fill="#fefefe" stroke="#fefefe" stroke-width="0.09375" opacity="1.00" d=" M 259.38 285.35 C 263.28 282.71 269.08 286.33 268.40 290.98 C 268.32 295.54 262.27 298.22 258.82 295.27 C 255.45 292.93 255.77 287.30 259.38 285.35 Z" />
<path fill="#fefefe" stroke="#fefefe" stroke-width="0.09375" opacity="1.00" d=" M 375.18 285.18 C 379.09 282.88 384.53 286.58 383.85 291.06 C 383.65 295.45 378.01 298.12 374.48 295.45 C 370.77 293.12 371.15 286.94 375.18 285.18 Z" />
<path fill="#fefefe" stroke="#fefefe" stroke-width="0.09375" opacity="1.00" d=" M 285.89 298.90 C 296.65 290.75 311.06 289.57 324.00 291.58 C 334.51 293.18 344.01 299.31 350.21 307.89 C 356.54 315.76 359.47 325.98 366.93 333.00 C 371.44 337.45 376.82 341.03 382.71 343.38 C 393.46 347.29 404.71 351.70 412.45 360.51 C 417.81 366.49 419.83 374.95 418.43 382.79 C 415.75 399.13 405.14 412.59 400.24 428.17 C 399.20 430.68 397.58 432.89 396.25 435.25 C 375.30 435.27 354.35 435.22 333.40 435.28 C 347.17 426.65 350.06 407.45 343.95 393.28 C 351.85 389.02 357.20 380.90 358.10 371.97 C 360.99 368.45 363.03 364.23 362.95 359.57 C 361.40 362.94 359.82 366.64 356.56 368.70 C 352.24 371.54 346.63 370.71 342.08 368.94 C 336.63 366.78 333.42 361.46 328.45 358.57 C 324.97 356.32 320.84 355.50 316.81 354.86 C 316.33 350.66 315.78 346.46 315.34 342.26 C 327.61 340.78 337.47 331.26 342.51 320.42 C 344.83 315.39 346.35 308.96 342.95 304.05 C 338.48 298.04 330.60 296.22 323.58 295.22 C 313.52 294.15 303.03 294.25 293.40 297.65 C 288.29 299.47 283.10 303.31 282.44 309.08 C 281.93 314.75 284.38 320.21 287.24 324.97 C 292.68 333.60 301.31 341.09 311.80 342.17 C 311.32 346.43 310.74 350.68 310.29 354.95 C 306.48 355.46 302.62 356.27 299.29 358.30 C 294.01 361.17 290.76 366.86 285.02 369.01 C 280.62 370.67 275.28 371.44 271.05 368.91 C 267.56 366.79 265.87 362.95 264.29 359.38 C 264.44 363.83 265.86 368.29 269.02 371.54 C 269.63 380.74 275.29 389.00 283.31 393.41 C 277.22 407.56 280.21 426.64 293.90 435.27 C 272.96 435.23 252.03 435.26 231.09 435.26 C 229.76 433.00 228.20 430.86 227.20 428.43 C 222.37 413.39 212.49 400.31 209.21 384.72 C 207.41 376.68 208.77 367.67 214.23 361.29 C 221.90 352.00 233.48 347.32 244.55 343.46 C 254.25 339.31 262.95 332.25 267.91 322.82 C 272.64 314.03 277.76 305.00 285.89 298.90 Z" />
<path fill="#dca592" stroke="#dca592" stroke-width="0.09375" opacity="1.00" d=" M 291.09 394.99 C 294.94 388.50 303.59 387.65 310.29 389.26 C 311.20 400.32 312.59 411.34 313.51 422.40 C 315.18 411.33 315.75 400.13 317.24 389.04 C 323.65 387.97 331.76 388.36 335.78 394.26 C 342.06 405.26 340.60 422.09 329.00 429.01 C 322.07 432.91 313.62 433.26 305.95 431.82 C 299.64 430.65 293.68 426.88 290.77 421.05 C 286.79 412.99 286.94 402.94 291.09 394.99 Z" />
<path fill="#fefefe" stroke="#fefefe" stroke-width="0.09375" opacity="1.00" d=" M 166.53 405.81 C 175.73 404.60 185.79 404.97 193.78 410.20 C 201.47 415.12 205.62 424.14 206.30 433.04 C 206.71 438.93 206.28 445.19 203.38 450.46 C 202.10 453.10 198.76 453.96 196.06 453.46 C 193.14 452.44 192.53 449.17 190.87 446.96 C 188.84 445.26 185.35 446.25 184.80 448.94 C 184.60 451.24 185.18 453.74 183.99 455.87 C 182.19 459.51 178.19 461.17 174.50 462.21 C 171.30 463.04 167.45 463.55 164.68 461.33 C 161.89 459.13 161.62 455.37 160.75 452.20 C 159.87 449.68 156.06 449.32 154.54 451.45 C 153.32 453.70 153.01 456.34 151.68 458.55 C 149.63 462.09 145.04 463.44 141.20 462.86 C 137.35 460.25 135.31 455.78 133.68 451.57 C 129.92 441.13 130.25 428.39 137.48 419.49 C 144.52 410.82 155.86 407.30 166.53 405.81 Z" />
<path fill="#fefefe" stroke="#fefefe" stroke-width="0.09375" opacity="1.00" d=" M 444.23 405.25 C 455.19 403.45 466.63 405.29 476.87 409.44 C 485.94 413.11 493.46 421.05 495.19 430.87 C 496.96 441.20 494.65 452.69 487.73 460.75 C 485.61 463.50 481.74 462.20 479.05 461.12 C 475.27 459.56 474.29 455.29 473.11 451.82 C 472.34 448.76 467.59 448.53 466.36 451.36 C 465.74 453.44 465.59 455.67 464.67 457.66 C 463.42 461.10 459.50 462.69 456.06 462.17 C 451.30 461.49 445.98 459.89 443.31 455.56 C 441.86 453.31 442.50 450.54 442.34 448.03 C 441.67 445.42 438.25 444.60 436.26 446.23 C 434.64 448.26 434.11 451.27 431.60 452.50 C 428.12 453.93 423.93 451.71 422.90 448.15 C 418.75 437.20 420.28 423.82 427.64 414.56 C 431.79 409.54 437.88 406.40 444.23 405.25 Z" />
</svg>
